<svg xmlns="http://www.w3.org/2000/svg" xmlns:xlink="http://www.w3.org/1999/xlink" version="1.1" width="612" height="792" viewBox="0 0 612 792">
<defs>
<clipPath id="clip_0">
<path d="M0 0H201.96V792H0V0"/>
</clipPath>
<clipPath id="clip_1">
<path transform="matrix(1,0,0,1,21.6,43.2)" d="M-21.6 0H180.36V549.8H-21.6V0"/>
</clipPath>
<clipPath id="clip_2">
<path transform="matrix(1,0,0,1,0,770.4)" d="M0 0H201.96V14.4H0V0"/>
</clipPath>
</defs>
<g clip-path="url(#clip_0)">
<path d="M0 0H201.96V792H0Z" fill="#293e49"/>
</g>
<text xml:space="preserve" transform="matrix(1 0 0 1 0 0)" font-size="12" font-family="ArialUnicodeMS"><tspan y="10.314" x="0">&#x00a0;</tspan></text>
<text xml:space="preserve" transform="matrix(1 0 0 1 201.96 0)" font-size="12" font-family="ArialUnicodeMS"><tspan y="10.314" x="203.358">&#x00a0;</tspan></text>
<g clip-path="url(#clip_1)">
<path transform="matrix(1,0,0,1,21.6,43.2)" d="M-21.6 0H180.36V549.8H-21.6Z" fill="#293e49"/>
</g>
<text fill="#e1e9ee" xml:space="preserve" transform="matrix(1 0 0 1 21.6 43.2)" font-size="13" font-family="ArialUnicodeMS"><tspan y="11.173" x="0 9.386001 16.614003 23.842003 27.443003 34.671007 41.171007">Contact</tspan></text>
<text fill="#ffffff" xml:space="preserve" transform="matrix(1 0 0 1 21.6 43.2)" font-size="10.5" font-family="ArialUnicodeMS"><tspan y="30.625" x="0 5.838001 11.676002 17.514002 19.845002 25.683003 31.521004 37.359006 43.197008 49.035009 54.87301 60.71101 66.54901 70.04551 72.37651 83.03401 88.87201 97.61851 103.456508 105.787509 108.11851 111.02701 116.27701 122.115009">abhinabapahari@gmail.com</tspan></text>
<text fill="#ffffff" xml:space="preserve" transform="matrix(1 0 0 1 21.6 43.2)" font-size="11" font-family="ArialUnicodeMS"><tspan y="55.014" x="0 7.942001 15.884002 23.826003 26.873003 29.315003 31.757002 37.873 43.373 49.489004 55.605005 58.047006 64.163 67.21 72.71 78.826 87.989 91.035999 93.478 99.593997">www.linkedin.com/in/</tspan></text>
<text fill="#ffffff" xml:space="preserve" transform="matrix(1 0 0 1 21.6 43.2)" font-size="11" font-family="ArialUnicodeMS"><tspan y="69.414" x="0 6.1160008 12.232001 18.348002 20.79 26.906002 33.022005 39.138006 45.254007 51.370008 57.486009 63.60201 69.71801 73.38101">abhinabapahari</tspan></text>
<text fill="#a9b1b6" xml:space="preserve" transform="matrix(1 0 0 1 21.6 43.2)" font-size="11" font-family="ArialUnicodeMS"><tspan y="69.414" x="75.823 78.869998 82.533 88.648998 91.090999 97.20699 102.70699 108.82299 114.93899 117.985988 124.10198"> (LinkedIn)</tspan></text>
<text fill="#e1e9ee" xml:space="preserve" transform="matrix(1 0 0 1 21.6 43.2)" font-size="13" font-family="ArialUnicodeMS"><tspan y="104.673" x="0 7.9300005 15.158001 22.386002 25.987002 34.645 41.145 44.031003 46.917005 49.803007">Top Skills</tspan></text>
<text fill="#ffffff" xml:space="preserve" transform="matrix(1 0 0 1 21.6 43.2)" font-size="10.5" font-family="ArialUnicodeMS"><tspan y="124.125" x="0 7.581001 13.419002 16.327502 22.165503 25.074004 32.067 37.905004 43.743005 46.074007 51.324007 56.574007 58.905008">Data Analysis</tspan></text>
<text fill="#ffffff" xml:space="preserve" transform="matrix(1 0 0 1 21.6 43.2)" font-size="10.5" font-family="ArialUnicodeMS"><tspan y="141.725" x="0 6.993 10.4895 16.327502 22.165503 24.496502 30.334504 39.081007 41.989507 48.982507 54.820508 57.15151 62.40151 64.732509 70.5705">Problem Solving</tspan></text>
<text fill="#ffffff" xml:space="preserve" transform="matrix(1 0 0 1 21.6 43.2)" font-size="10.5" font-family="ArialUnicodeMS"><tspan y="159.325" x="0 6.993 12.831001 18.669003 21.000002 23.331002 28.581002">English</tspan></text>
<text fill="#e1e9ee" xml:space="preserve" transform="matrix(1 0 0 1 21.6 43.2)" font-size="13" font-family="ArialUnicodeMS"><tspan y="194.073" x="0 7.2280008 14.456001 21.684002 28.912003 36.140005 43.368005 50.596006 57.824007">Languages</tspan></text>
<text fill="#ffffff" xml:space="preserve" transform="matrix(1 0 0 1 21.6 43.2)" font-size="10.5" font-family="ArialUnicodeMS"><tspan y="213.525" x="0 6.993 12.831001 18.669003 21.000002 23.331002 28.581002">English</tspan></text>
<text fill="#a9b1b6" xml:space="preserve" transform="matrix(1 0 0 1 21.6 43.2)" font-size="10.5" font-family="ArialUnicodeMS"><tspan y="213.525" x="34.419 37.3275 40.823999 47.816999 51.3135 57.1515 60.06 65.898 71.148 76.398 78.729007 84.567 90.405 96.243 98.574 101.4825 111.383998 117.22199 120.71849 125.96849 128.29949 134.13748 139.97548"> (Professional Working)</tspan></text>
<text fill="#ffffff" xml:space="preserve" transform="matrix(1 0 0 1 21.6 43.2)" font-size="10.5" font-family="ArialUnicodeMS"><tspan y="231.125" x="0 7.581001 9.912001 15.750002 21.588004">Hindi</tspan></text>
<text fill="#a9b1b6" xml:space="preserve" transform="matrix(1 0 0 1 21.6 43.2)" font-size="10.5" font-family="ArialUnicodeMS"><tspan y="231.125" x="23.919 26.827502 30.324002 36.162004 38.493005 47.239507 49.570508 52.479009 58.31701 64.15501 67.06351 76.965007 82.803 86.2995 91.5495 93.8805 99.7185 105.556499"> (Limited Working)</tspan></text>
<text fill="#ffffff" xml:space="preserve" transform="matrix(1 0 0 1 21.6 43.2)" font-size="10.5" font-family="ArialUnicodeMS"><tspan y="248.725" x="0 6.993 12.831001 18.669003 24.507004 30.345005 32.676008">Bengali</tspan></text>
<text fill="#a9b1b6" xml:space="preserve" transform="matrix(1 0 0 1 21.6 43.2)" font-size="10.5" font-family="ArialUnicodeMS"><tspan y="248.725" x="35.007 37.9155 41.412004 48.993005 54.831007 57.739507 60.070508 65.32051 71.15851 74.06701 79.90501 83.401508 86.310009 93.30301 95.63401 97.96501 100.29601 106.13401 111.97201 117.810009 123.648 125.979007"> (Native or Bilingual)</tspan></text>
<text fill="#e1e9ee" xml:space="preserve" transform="matrix(1 0 0 1 21.6 43.2)" font-size="13" font-family="ArialUnicodeMS"><tspan y="283.473" x="0 9.386001 16.614003 20.943003 24.544003 27.430003 31.031002 33.917005 40.417005 47.645006 51.246007 54.132009 61.36001 68.58801">Certifications</tspan></text>
<text fill="#ffffff" xml:space="preserve" transform="matrix(1 0 0 1 21.6 43.2)" font-size="10.5" font-family="ArialUnicodeMS"><tspan y="302.925" x="0 6.993 12.243 15.151501 20.989502 26.827504 32.665506 35.574007 41.412008 43.743009 49.58101 53.077508 58.91551 62.41201 64.74301 70.58101 75.83101 78.73951 81.64801 89.22901 95.06701 103.81351 109.651508 114.901508 117.810009 120.718509 129.46501 135.30301 138.2115 144.0495 146.3805 152.21849 155.12699 157.45798 159.78897">Python Libraries: Numpy, Matplotlib</tspan></text>
<text fill="#ffffff" xml:space="preserve" transform="matrix(1 0 0 1 21.6 43.2)" font-size="10.5" font-family="ArialUnicodeMS"><tspan y="315.525" x="0 5.838001 11.676002 17.514002 20.422503 27.415503 33.2535 39.091505 44.929506 50.767507">and Pandas</tspan></text>
<text fill="#e1e9ee" xml:space="preserve" transform="matrix(1 0 0 1 21.6 43.2)" font-size="13" font-family="ArialUnicodeMS"><tspan y="350.273" x="0 9.386001 16.614003 23.842003 31.070004 35.399003 41.899003 46.228 54.886 64.272 71.5 75.829 83.05701">Honors-Awards</tspan></text>
<text fill="#ffffff" xml:space="preserve" transform="matrix(1 0 0 1 21.6 43.2)" font-size="10.5" font-family="ArialUnicodeMS"><tspan y="369.725" x="0 6.993 12.243 18.081002 23.919003 29.757004 38.503507 40.834508 46.084508 48.993009 55.986009 61.236009 66.48601 72.324008 74.65501 76.98601 82.824008 88.662 93.912 99.75 102.6585 109.651508 117.232509 123.0705 126.567 132.405 135.31349 141.15149 146.98949 152.82749">Academic Excellence Award 2020</tspan></text>
<text fill="#ffffff" xml:space="preserve" transform="matrix(1 0 0 1 21.6 43.2)" font-size="10.5" font-family="ArialUnicodeMS"><tspan y="387.325" x="0 2.9085003 10.489501 17.482502 24.475502 27.384003 34.965005 41.958005 44.866506 51.859506 57.109506 62.947507 68.78551 71.11651 76.954509 80.451007 85.701007 91.539 93.87 99.708 102.6165 109.6095 117.1905 123.028499 126.524997">INSPIRE Scholarship Award</tspan></text>
<text fill="#212121" xml:space="preserve" transform="matrix(1 0 0 1 223.56 43.2)" font-size="26" font-family="ArialUnicodeMS"><tspan y="22.347" x="0 17.316 31.772002 46.228006 52.000005 66.45601 80.91201 95.36801 109.82401 117.02602 134.34201 148.798 163.254 177.70999 186.368">Abhinaba Pahari</tspan></text>
<text fill="#212121" xml:space="preserve" transform="matrix(1 0 0 1 223.56 43.2)" font-size="12" font-family="ArialUnicodeMS"><tspan y="43.514" x="0 9.324 13.320001 19.992 26.664002 33.336004 40.008005 43.332006 50.004007 53.328008 61.320009 64.644008 71.31601 77.98801 84.66 91.332 94.656 97.979999 104.65199 107.97599 111.29999 114.623989 117.94798 125.26798 128.59198 136.58399 143.25598 149.92798 153.92398 160.59598 167.26798 173.93997 180.61197">Graduate Student at IIT Kharagpur</tspan></text>
<text fill="#bfbfbe" xml:space="preserve" transform="matrix(1 0 0 1 223.56 43.2)" font-size="12" font-family="ArialUnicodeMS"><tspan y="58.914" x="0 3.3240002 9.996001 16.668004 19.332003">India</tspan></text>
<text fill="#212121" xml:space="preserve" transform="matrix(1 0 0 1 223.56 43.2)" font-size="15.75" font-family="ArialUnicodeMS"><tspan y="96.537" x="0 10.4895 19.246502 32.366254 45.486005 54.243005 59.487756">Summary</tspan></text>
<text fill="#212121" xml:space="preserve" transform="matrix(1 0 0 1 223.56 43.2)" font-size="12" font-family="ArialUnicodeMS"><tspan y="122.014" x="0 9.324 13.320001 19.992 26.664002 33.336004 40.008005 43.332006 50.004007 53.328008 61.320009 64.644008 71.31601 77.98801 84.66 91.332 94.656 97.979999 104.65199 107.97599 111.29999 114.623989 121.29599 127.96799 130.63199 137.30399 143.97599 147.29999 150.624 157.29599 163.29599 166.62 169.284 172.608 179.28 182.604 189.276 192.6 199.272 202.59601 205.92002 213.24002 219.91202 225.91202 232.58402 239.25601 245.92801 248.59201 255.264 261.936 267.936 271.26 274.584 282.57603 289.24803 295.92 299.91603 306.588 313.26 319.932 326.604">Graduate Student at Indian Institute of Technology, Kharagpur</tspan></text>
<path transform="matrix(1,0,0,1,223.56,43.2)" stroke-width="1" stroke-linecap="butt" stroke-miterlimit="10" stroke-linejoin="miter" fill="none" stroke="#929292" d="M0 149.714H36.684"/>
<text fill="#212121" xml:space="preserve" transform="matrix(1 0 0 1 223.56 43.2)" font-size="15.75" font-family="ArialUnicodeMS"><tspan y="175.837" x="0 10.4895 18.3645 27.121502 35.8785 41.123254 44.619756 53.376756 62.133756 70.00876">Experience</tspan></text>
<text fill="#212121" xml:space="preserve" transform="matrix(1 0 0 1 223.56 232.4)" font-size="12" font-family="ArialUnicodeMS"><tspan y="17.114" x="0 3.3240002 9.996001 16.668004 19.332003 26.004004 32.676004 36.000005 39.324007 45.996007 51.996007 55.320009 57.98401 61.30801 67.98001 71.30401 77.97601 81.30001 87.972019 91.29601 94.62001 101.94001 108.612018 114.612018 121.28401 127.95601 134.628 137.292 143.964 150.636 156.636 159.96 163.28401 171.27602 177.94802 184.62001 188.61602 195.28801 201.96 208.632 215.304">Indian Institute of Technology, Kharagpur</tspan></text>
<text fill="#212121" xml:space="preserve" transform="matrix(1 0 0 1 223.56 232.4)" font-size="11.5" font-family="ArialUnicodeMS"><tspan y="33.172" x="0 8.9355 12.765 19.159 25.553002 31.947003 38.341005 41.526506 47.920507 51.106008 58.765008 61.95051 68.344509 74.7385 81.1325 87.5265">Graduate Student</tspan></text>
<text fill="#212121" xml:space="preserve" transform="matrix(1 0 0 1 223.56 232.4)" font-size="10.5" font-family="ArialUnicodeMS"><tspan y="47.689" x="0 6.993 12.831001 18.669003 24.507004 29.757004 32.665506 35.574007 41.412008 47.250009 53.08801 58.92601 61.83451 65.33101 68.23951 75.23251 78.72901 84.56701 89.81701 95.65501 101.493007 104.401508">August 2023&#x00a0;-&#x00a0;Present&#x00a0;</tspan></text>
<text fill="#212121" xml:space="preserve" transform="matrix(1 0 0 1 223.56 232.4)" font-size="10.5" font-family="ArialUnicodeMS"><tspan y="47.689" x="107.306 110.8025 116.640499 119.548999 124.798999 130.637 136.47499 139.9715">(1 year)</tspan></text>
<text fill="#bfbfbe" xml:space="preserve" transform="matrix(1 0 0 1 223.56 232.4)" font-size="10.5" font-family="ArialUnicodeMS"><tspan y="62.375" x="0 6.993 12.831001 18.669003 22.165503 28.003504 33.841505 39.679506 45.517507 49.014009 51.92251 54.83101 64.732509 70.5705 75.8205 78.729007 81.637508 88.63051 94.468509 100.3065 106.1445 111.9825 114.3135 117.222 120.1305 123.039 128.877 134.715 137.04599">Kharagpur, West Bengal, India</tspan></text>
<text fill="#212121" xml:space="preserve" transform="matrix(1 0 0 1 223.56 319.42503)" font-size="12" font-family="ArialUnicodeMS"><tspan y="17.114" x="0 3.3240002 9.996001 16.668004 19.332003 26.004004 32.676004 36.000005 39.324007 45.996007 51.996007 55.320009 57.98401 61.30801 67.98001 71.30401 77.97601 81.30001 87.972019 91.29601 94.62001 101.94001 108.612018 114.612018 121.28401 127.95601 134.628 137.292 143.964 150.636 156.636 159.96 167.95201 174.62401 181.296 185.292 191.964 198.636 205.308 211.98 215.976 219.3 223.296 226.62001 229.94402 237.26403 240.58803 248.58003 255.25203 261.92405 265.92005 272.59205 279.26405 285.93605 292.60804 296.60404 300.60005">Indian Institute of Technology Kharagpur (IIT Kharagpur) </tspan></text>
<text fill="#212121" xml:space="preserve" transform="matrix(1 0 0 1 223.56 319.42503)" font-size="11.5" font-family="ArialUnicodeMS"><tspan y="33.172" x="0 10.844501 13.397501 19.791502 22.977002 29.371003 33.2005 36.386 39.571504 45.965505 49.151006 55.545007 59.374505">Winter Intern</tspan></text>
<text fill="#212121" xml:space="preserve" transform="matrix(1 0 0 1 223.56 319.42503)" font-size="10.5" font-family="ArialUnicodeMS"><tspan y="47.689" x="0 7.581001 13.419002 18.669003 24.507004 33.253507 39.091508 44.92951 48.42601 51.33451 57.172513 63.010515 68.84851 74.68651 77.59501 81.09151 84.00001 91.58101 97.41901 102.66901 108.507 117.2535 123.0915 128.9295 132.42601 135.3345 141.1725 147.0105 152.8485 158.6865">November 2023&#x00a0;-&#x00a0;December 2023&#x00a0;</tspan></text>
<text fill="#212121" xml:space="preserve" transform="matrix(1 0 0 1 223.56 319.42503)" font-size="10.5" font-family="ArialUnicodeMS"><tspan y="47.689" x="161.59 165.0865 170.9245 173.833 182.5795 188.4175 194.2555 197.16399 203.00199 208.25199">(2 months)</tspan></text>
<path transform="matrix(1,0,0,1,223.56,43.2)" stroke-width="1" stroke-linecap="butt" stroke-miterlimit="10" stroke-linejoin="miter" fill="none" stroke="#929292" d="M0 357.314H36.684"/>
<text fill="#212121" xml:space="preserve" transform="matrix(1 0 0 1 223.56 43.2)" font-size="15.75" font-family="ArialUnicodeMS"><tspan y="383.437" x="0 10.4895 19.246502 28.003502 35.8785 44.6355 48.998254 52.494756 61.251756">Education</tspan></text>
<text fill="#212121" xml:space="preserve" transform="matrix(1 0 0 1 223.56 440)" font-size="12" font-family="ArialUnicodeMS"><tspan y="12.114" x="0 3.3240002 9.996001 16.668004 19.332003 26.004004 32.676004 36.000005 39.324007 45.996007 51.996007 55.320009 57.98401 61.30801 67.98001 71.30401 77.97601 81.30001 87.972019 91.29601 94.62001 101.94001 108.612018 114.612018 121.28401 127.95601 134.628 137.292 143.964 150.636 156.636 159.96 163.28401 171.27602 177.94802 184.62001 188.61602 195.28801 201.96 208.632 215.304">Indian Institute of Technology, Kharagpur</tspan></text>
<text fill="#212121" xml:space="preserve" transform="matrix(1 0 0 1 223.56 440)" font-size="10.5" font-family="ArialUnicodeMS"><tspan y="29.725" x="0 8.746501 14.584501 19.834502 22.743002 28.581004 32.077505 34.072504 39.322504 42.231004 48.069005 53.907007 59.745008 63.24151 69.079509 74.9175 77.826007 80.734508 87.72751 93.565509 98.815509 104.065509 106.39651 111.64651">Master's degree,&#x00a0;Physics</tspan></text>
<text fill="#212121" xml:space="preserve" transform="matrix(1 0 0 1 223.56 440)" font-size="10.5" font-family="ArialUnicodeMS"><tspan y="29.725" x="116.893 119.8015 122.71 125.6185 129.115 136.108 141.946 147.784 153.622 158.872 161.78049 164.68898 170.52698 176.36498 182.20298 188.04097 190.94947 194.44597 197.35446 202.60446 208.44246 214.28046 220.11846 223.02695 228.86495 234.70294 240.54094 246.37894">&#x00a0;&#x00b7;&#x00a0;(August 2023&#x00a0;-&#x00a0;June 2025)</tspan></text>
<text fill="#212121" xml:space="preserve" transform="matrix(1 0 0 1 223.56 491)" font-size="12" font-family="ArialUnicodeMS"><tspan y="12.114" x="0 6 12.672001 19.344002 26.016003 32.016004 38.688005 45.360006 49.356004 52.680006 61.344007 68.01601 70.68001 76.68001 83.352008 87.34801 93.34801 96.01201 99.336009 105.336009 108.66 111.984 119.976 126.647998 129.312 135.312 141.984 145.308">Jadavpur University, Kolkata</tspan></text>
<text fill="#212121" xml:space="preserve" transform="matrix(1 0 0 1 223.56 491)" font-size="10.5" font-family="ArialUnicodeMS"><tspan y="29.725" x="0 6.993 9.901501 16.8945 22.1445 25.053002 27.961503 34.954504 40.792505 46.042505 51.292505 53.623506 58.873506">B.Sc,&#x00a0;Physics</tspan></text>
<text fill="#212121" xml:space="preserve" transform="matrix(1 0 0 1 223.56 491)" font-size="10.5" font-family="ArialUnicodeMS"><tspan y="29.725" x="64.122 67.0305 69.939 72.8475 76.344 82.182 88.02 93.857997 99.69599 102.60449 106.10099 109.00949 114.84749 120.685489 126.52348 132.36148">&#x00a0;&#x00b7;&#x00a0;(2021&#x00a0;-&#x00a0;2023)</tspan></text>
<text fill="#212121" xml:space="preserve" transform="matrix(1 0 0 1 223.56 542)" font-size="12" font-family="ArialUnicodeMS"><tspan y="12.114" x="0 7.992 14.664001 17.328001 23.328001 30.000002 32.664 35.988004 43.980005 50.652006 53.316007 59.988008 62.652009 65.976009 74.64001 81.31201 87.98401 94.656009 101.328 105.324008 111.996 115.32 123.312 125.976 132.648 138.648 145.31999 151.99199 154.65599 157.98">Bajkul Balai Chandra Vidyapith</tspan></text>
<text fill="#212121" xml:space="preserve" transform="matrix(1 0 0 1 223.56 542)" font-size="10.5" font-family="ArialUnicodeMS"><tspan y="29.725" x="0 6.993 12.243 14.574 20.412 26.250002 31.500002">Science</tspan></text>
<text fill="#212121" xml:space="preserve" transform="matrix(1 0 0 1 223.56 542)" font-size="10.5" font-family="ArialUnicodeMS"><tspan y="29.725" x="37.338 40.246503 43.155004 46.063505 49.560007 55.398008 61.236009 67.074008 72.912 75.8205 79.317 82.2255 88.0635 93.9015 99.739498 105.57749">&#x00a0;&#x00b7;&#x00a0;(2018&#x00a0;-&#x00a0;2020)</tspan></text>
<g clip-path="url(#clip_2)">
<path transform="matrix(1,0,0,1,0,770.4)" d="M0 0H201.96V14.4H0Z" fill="#293e49"/>
</g>
<text xml:space="preserve" transform="matrix(1 0 0 1 0 770.4)" font-size="12" font-family="ArialUnicodeMS"><tspan y="10.314" x="0">&#x00a0;</tspan></text>
<text xml:space="preserve" transform="matrix(1 0 0 1 201.96 770.4)" font-size="9" font-family="ArialUnicodeMS"><tspan y="7.735" x="182.025 188.019 193.023 198.027 203.03099">Page </tspan></text>
<text xml:space="preserve" transform="matrix(1 0 0 1 201.96 770.4)" font-size="9" font-family="ArialUnicodeMS"><tspan y="7.735" x="205.524">1</tspan></text>
<text xml:space="preserve" transform="matrix(1 0 0 1 201.96 770.4)" font-size="9" font-family="ArialUnicodeMS"><tspan y="7.735" x="210.528 213.021 218.025 220.51799"> of </tspan></text>
<text xml:space="preserve" transform="matrix(1 0 0 1 201.96 770.4)" font-size="9" font-family="ArialUnicodeMS"><tspan y="7.735" x="223.011">1</tspan></text>
</svg>
